<mxfile host="app.diagrams.net" modified="2021-09-06T06:35:20.711Z" agent="5.0 (Windows NT 10.0; Win64; x64) AppleWebKit/537.36 (KHTML, like Gecko) Chrome/92.0.4515.159 Safari/537.36" etag="Rf3KsHFKdos3cPdR4kjJ" version="15.0.6" type="github">
  <diagram id="grHhk6JO6nEzXWK3I9_y" name="UseCase">
    <mxGraphModel dx="1038" dy="556" grid="1" gridSize="10" guides="1" tooltips="1" connect="1" arrows="1" fold="1" page="1" pageScale="1" pageWidth="827" pageHeight="1169" math="0" shadow="0">
      <root>
        <mxCell id="0" />
        <mxCell id="1" parent="0" />
        <mxCell id="eEMKXpCmWRPk5_iNfO5g-26" style="orthogonalLoop=1;jettySize=auto;html=1;exitX=0.75;exitY=0.1;exitDx=0;exitDy=0;exitPerimeter=0;entryX=0;entryY=0.5;entryDx=0;entryDy=0;rounded=0;" parent="1" source="eEMKXpCmWRPk5_iNfO5g-9" target="eEMKXpCmWRPk5_iNfO5g-12" edge="1">
          <mxGeometry relative="1" as="geometry" />
        </mxCell>
        <mxCell id="eEMKXpCmWRPk5_iNfO5g-27" style="rounded=0;orthogonalLoop=1;jettySize=auto;html=1;exitX=0.5;exitY=0.5;exitDx=0;exitDy=0;exitPerimeter=0;entryX=0;entryY=0.5;entryDx=0;entryDy=0;" parent="1" source="eEMKXpCmWRPk5_iNfO5g-9" target="eEMKXpCmWRPk5_iNfO5g-18" edge="1">
          <mxGeometry relative="1" as="geometry" />
        </mxCell>
        <mxCell id="eEMKXpCmWRPk5_iNfO5g-9" value="Менеджер" style="shape=umlActor;verticalLabelPosition=bottom;verticalAlign=top;html=1;" parent="1" vertex="1">
          <mxGeometry x="160" y="232" width="30" height="60" as="geometry" />
        </mxCell>
        <mxCell id="eEMKXpCmWRPk5_iNfO5g-30" style="edgeStyle=none;rounded=0;orthogonalLoop=1;jettySize=auto;html=1;exitX=0.5;exitY=0.5;exitDx=0;exitDy=0;exitPerimeter=0;entryX=0;entryY=0.5;entryDx=0;entryDy=0;" parent="1" source="eEMKXpCmWRPk5_iNfO5g-10" target="eEMKXpCmWRPk5_iNfO5g-19" edge="1">
          <mxGeometry relative="1" as="geometry" />
        </mxCell>
        <mxCell id="eEMKXpCmWRPk5_iNfO5g-10" value="Бухгалтер" style="shape=umlActor;verticalLabelPosition=bottom;verticalAlign=top;html=1;" parent="1" vertex="1">
          <mxGeometry x="160" y="400" width="30" height="66" as="geometry" />
        </mxCell>
        <mxCell id="eEMKXpCmWRPk5_iNfO5g-32" style="edgeStyle=none;rounded=0;orthogonalLoop=1;jettySize=auto;html=1;exitX=0.5;exitY=0.5;exitDx=0;exitDy=0;exitPerimeter=0;entryX=0;entryY=0.5;entryDx=0;entryDy=0;" parent="1" source="eEMKXpCmWRPk5_iNfO5g-11" target="eEMKXpCmWRPk5_iNfO5g-20" edge="1">
          <mxGeometry relative="1" as="geometry" />
        </mxCell>
        <mxCell id="eEMKXpCmWRPk5_iNfO5g-11" value="Кладовщик" style="shape=umlActor;verticalLabelPosition=bottom;verticalAlign=top;html=1;" parent="1" vertex="1">
          <mxGeometry x="160" y="580" width="30" height="66" as="geometry" />
        </mxCell>
        <mxCell id="eEMKXpCmWRPk5_iNfO5g-12" value="Оформление заказа" style="ellipse;whiteSpace=wrap;html=1;" parent="1" vertex="1">
          <mxGeometry x="330" y="150" width="140" height="70" as="geometry" />
        </mxCell>
        <mxCell id="eEMKXpCmWRPk5_iNfO5g-28" style="edgeStyle=none;rounded=0;orthogonalLoop=1;jettySize=auto;html=1;exitX=0.5;exitY=0;exitDx=0;exitDy=0;entryX=0.5;entryY=1;entryDx=0;entryDy=0;dashed=1;" parent="1" source="eEMKXpCmWRPk5_iNfO5g-18" target="eEMKXpCmWRPk5_iNfO5g-12" edge="1">
          <mxGeometry relative="1" as="geometry" />
        </mxCell>
        <mxCell id="eEMKXpCmWRPk5_iNfO5g-29" style="edgeStyle=none;rounded=0;orthogonalLoop=1;jettySize=auto;html=1;exitX=0;exitY=1;exitDx=0;exitDy=0;entryX=0.75;entryY=0.1;entryDx=0;entryDy=0;entryPerimeter=0;" parent="1" source="eEMKXpCmWRPk5_iNfO5g-18" target="eEMKXpCmWRPk5_iNfO5g-10" edge="1">
          <mxGeometry relative="1" as="geometry" />
        </mxCell>
        <mxCell id="eEMKXpCmWRPk5_iNfO5g-18" value="Оформление счета" style="ellipse;whiteSpace=wrap;html=1;" parent="1" vertex="1">
          <mxGeometry x="330" y="292" width="140" height="70" as="geometry" />
        </mxCell>
        <mxCell id="eEMKXpCmWRPk5_iNfO5g-31" style="edgeStyle=none;rounded=0;orthogonalLoop=1;jettySize=auto;html=1;exitX=0.5;exitY=0;exitDx=0;exitDy=0;entryX=0.5;entryY=1;entryDx=0;entryDy=0;dashed=1;" parent="1" source="eEMKXpCmWRPk5_iNfO5g-19" target="eEMKXpCmWRPk5_iNfO5g-18" edge="1">
          <mxGeometry relative="1" as="geometry" />
        </mxCell>
        <mxCell id="eEMKXpCmWRPk5_iNfO5g-39" style="edgeStyle=none;rounded=0;orthogonalLoop=1;jettySize=auto;html=1;exitX=1;exitY=0.5;exitDx=0;exitDy=0;entryX=0;entryY=0.5;entryDx=0;entryDy=0;entryPerimeter=0;dashed=1;endArrow=none;endFill=0;" parent="1" source="eEMKXpCmWRPk5_iNfO5g-19" target="eEMKXpCmWRPk5_iNfO5g-36" edge="1">
          <mxGeometry relative="1" as="geometry" />
        </mxCell>
        <mxCell id="eEMKXpCmWRPk5_iNfO5g-19" value="Оформление накладных" style="ellipse;whiteSpace=wrap;html=1;" parent="1" vertex="1">
          <mxGeometry x="330" y="440" width="140" height="70" as="geometry" />
        </mxCell>
        <mxCell id="eEMKXpCmWRPk5_iNfO5g-40" style="edgeStyle=none;rounded=0;orthogonalLoop=1;jettySize=auto;html=1;exitX=1;exitY=0.5;exitDx=0;exitDy=0;entryX=0;entryY=0.5;entryDx=0;entryDy=0;entryPerimeter=0;dashed=1;endArrow=none;endFill=0;" parent="1" source="eEMKXpCmWRPk5_iNfO5g-20" target="eEMKXpCmWRPk5_iNfO5g-37" edge="1">
          <mxGeometry relative="1" as="geometry" />
        </mxCell>
        <mxCell id="eEMKXpCmWRPk5_iNfO5g-20" value="Выдача товара" style="ellipse;whiteSpace=wrap;html=1;" parent="1" vertex="1">
          <mxGeometry x="330" y="580" width="140" height="70" as="geometry" />
        </mxCell>
        <mxCell id="eEMKXpCmWRPk5_iNfO5g-38" style="edgeStyle=none;rounded=0;orthogonalLoop=1;jettySize=auto;html=1;exitX=0;exitY=0.5;exitDx=0;exitDy=0;exitPerimeter=0;entryX=1;entryY=0.5;entryDx=0;entryDy=0;endArrow=none;endFill=0;dashed=1;" parent="1" source="eEMKXpCmWRPk5_iNfO5g-35" target="eEMKXpCmWRPk5_iNfO5g-12" edge="1">
          <mxGeometry relative="1" as="geometry" />
        </mxCell>
        <mxCell id="eEMKXpCmWRPk5_iNfO5g-35" value="Сначала проверяет наличие продуктов на складе" style="shape=note2;boundedLbl=1;whiteSpace=wrap;html=1;size=25;verticalAlign=top;align=center;rounded=0;shadow=0;glass=0;sketch=0;strokeColor=#000000;" parent="1" vertex="1">
          <mxGeometry x="570" y="137.5" width="140" height="95" as="geometry" />
        </mxCell>
        <mxCell id="eEMKXpCmWRPk5_iNfO5g-36" value="После оплаты клиентом" style="shape=note2;boundedLbl=1;whiteSpace=wrap;html=1;size=25;verticalAlign=top;align=center;rounded=0;shadow=0;glass=0;sketch=0;strokeColor=#000000;" parent="1" vertex="1">
          <mxGeometry x="580" y="433.5" width="120" height="83" as="geometry" />
        </mxCell>
        <mxCell id="eEMKXpCmWRPk5_iNfO5g-37" value="По накладной, предоставленной клиентом" style="shape=note2;boundedLbl=1;whiteSpace=wrap;html=1;size=25;verticalAlign=top;align=center;rounded=0;shadow=0;glass=0;sketch=0;strokeColor=#000000;" parent="1" vertex="1">
          <mxGeometry x="580" y="572.5" width="130" height="85" as="geometry" />
        </mxCell>
      </root>
    </mxGraphModel>
  </diagram>
</mxfile>
